<svg xmlns="http://www.w3.org/2000/svg" xmlns:xlink="http://www.w3.org/1999/xlink" width="82" zoomAndPan="magnify" viewBox="0 0 61.5 30.000001" height="40" preserveAspectRatio="xMidYMid meet" version="1.0"><defs><g/></defs><g fill="#ffffff" fill-opacity="1"><g transform="translate(4.025601, 17.835755)"><g><path d="M 1.15625 0.046875 C 1.039062 0.046875 0.914062 0.0390625 0.78125 0.03125 C 0.65625 0.03125 0.546875 0.0195312 0.453125 0 C 0.347656 -0.0195312 0.269531 -0.0546875 0.21875 -0.109375 C 0.175781 -0.171875 0.175781 -0.25 0.21875 -0.34375 C 0.488281 -1.3125 0.789062 -2.273438 1.125 -3.234375 C 1.457031 -4.203125 1.800781 -5.117188 2.15625 -5.984375 C 2.519531 -6.859375 2.867188 -7.617188 3.203125 -8.265625 C 3.265625 -8.378906 3.363281 -8.445312 3.5 -8.46875 C 3.625 -8.5 3.753906 -8.515625 3.890625 -8.515625 C 4.023438 -8.523438 4.140625 -8.53125 4.234375 -8.53125 C 4.335938 -8.53125 4.457031 -8.523438 4.59375 -8.515625 C 4.726562 -8.515625 4.859375 -8.5 4.984375 -8.46875 C 5.117188 -8.445312 5.222656 -8.378906 5.296875 -8.265625 C 5.628906 -7.617188 5.972656 -6.859375 6.328125 -5.984375 C 6.679688 -5.117188 7.023438 -4.203125 7.359375 -3.234375 C 7.703125 -2.265625 8.003906 -1.300781 8.265625 -0.34375 C 8.296875 -0.238281 8.289062 -0.15625 8.25 -0.09375 C 8.21875 -0.0390625 8.144531 -0.00390625 8.03125 0.015625 C 7.96875 0.0234375 7.878906 0.03125 7.765625 0.03125 C 7.660156 0.03125 7.554688 0.03125 7.453125 0.03125 C 7.347656 0.0390625 7.273438 0.046875 7.234375 0.046875 C 7.171875 0.046875 7.046875 0.0390625 6.859375 0.03125 C 6.679688 0.03125 6.535156 0.0195312 6.421875 0 C 6.359375 -0.0195312 6.304688 -0.046875 6.265625 -0.078125 C 6.222656 -0.117188 6.203125 -0.171875 6.203125 -0.234375 C 6.210938 -0.484375 6.195312 -0.722656 6.15625 -0.953125 C 6.125 -1.191406 6.078125 -1.421875 6.015625 -1.640625 C 5.929688 -1.785156 5.789062 -1.90625 5.59375 -2 C 5.394531 -2.09375 5.15625 -2.144531 4.875 -2.15625 C 4.6875 -2.164062 4.472656 -2.171875 4.234375 -2.171875 C 4.003906 -2.171875 3.796875 -2.164062 3.609375 -2.15625 C 3.304688 -2.144531 3.0625 -2.09375 2.875 -2 C 2.695312 -1.90625 2.5625 -1.785156 2.46875 -1.640625 C 2.414062 -1.441406 2.367188 -1.222656 2.328125 -0.984375 C 2.296875 -0.742188 2.28125 -0.492188 2.28125 -0.234375 C 2.28125 -0.171875 2.253906 -0.117188 2.203125 -0.078125 C 2.160156 -0.046875 2.109375 -0.0195312 2.046875 0 C 1.941406 0.0195312 1.800781 0.03125 1.625 0.03125 C 1.445312 0.0390625 1.289062 0.046875 1.15625 0.046875 Z M 3.96875 -3.09375 C 4.03125 -3.09375 4.117188 -3.09375 4.234375 -3.09375 C 4.347656 -3.09375 4.4375 -3.09375 4.5 -3.09375 C 4.789062 -3.113281 4.992188 -3.179688 5.109375 -3.296875 C 5.234375 -3.421875 5.257812 -3.585938 5.1875 -3.796875 C 5.113281 -4.148438 5.019531 -4.503906 4.90625 -4.859375 C 4.789062 -5.222656 4.664062 -5.601562 4.53125 -6 C 4.332031 -6.46875 4.132812 -6.46875 3.9375 -6 C 3.800781 -5.601562 3.679688 -5.222656 3.578125 -4.859375 C 3.472656 -4.503906 3.382812 -4.148438 3.3125 -3.796875 C 3.144531 -3.359375 3.363281 -3.125 3.96875 -3.09375 Z M 3.96875 -3.09375 "/></g></g></g><g fill="#ffffff" fill-opacity="1"><g transform="translate(12.497539, 17.835755)"><g><path d="M 1.1875 2.828125 C 1.132812 2.828125 1.035156 2.820312 0.890625 2.8125 C 0.753906 2.800781 0.644531 2.789062 0.5625 2.78125 C 0.382812 2.757812 0.296875 2.660156 0.296875 2.484375 C 0.296875 1.984375 0.296875 1.378906 0.296875 0.671875 C 0.304688 -0.0234375 0.320312 -0.773438 0.34375 -1.578125 C 0.363281 -2.378906 0.382812 -3.179688 0.40625 -3.984375 C 0.4375 -4.785156 0.476562 -5.539062 0.53125 -6.25 C 0.550781 -6.445312 0.648438 -6.5625 0.828125 -6.59375 C 0.921875 -6.601562 1.035156 -6.613281 1.171875 -6.625 C 1.304688 -6.632812 1.40625 -6.640625 1.46875 -6.640625 C 1.519531 -6.640625 1.625 -6.632812 1.78125 -6.625 C 1.9375 -6.613281 2.0625 -6.601562 2.15625 -6.59375 C 2.238281 -6.582031 2.304688 -6.546875 2.359375 -6.484375 C 2.410156 -6.421875 2.425781 -6.34375 2.40625 -6.25 C 2.394531 -6.164062 2.378906 -6.078125 2.359375 -5.984375 C 2.347656 -5.898438 2.335938 -5.820312 2.328125 -5.75 C 2.316406 -5.625 2.335938 -5.550781 2.390625 -5.53125 C 2.453125 -5.519531 2.507812 -5.566406 2.5625 -5.671875 C 2.78125 -5.972656 3.066406 -6.21875 3.421875 -6.40625 C 3.773438 -6.59375 4.132812 -6.6875 4.5 -6.6875 C 5.007812 -6.6875 5.457031 -6.5625 5.84375 -6.3125 C 6.238281 -6.0625 6.546875 -5.6875 6.765625 -5.1875 C 6.992188 -4.695312 7.109375 -4.082031 7.109375 -3.34375 C 7.109375 -2.625 6.988281 -2.003906 6.75 -1.484375 C 6.507812 -0.972656 6.1875 -0.582031 5.78125 -0.3125 C 5.375 -0.0390625 4.914062 0.09375 4.40625 0.09375 C 3.976562 0.09375 3.578125 -0.00390625 3.203125 -0.203125 C 2.835938 -0.398438 2.550781 -0.671875 2.34375 -1.015625 C 2.289062 -1.117188 2.238281 -1.160156 2.1875 -1.140625 C 2.132812 -1.117188 2.101562 -1.050781 2.09375 -0.9375 C 2.082031 -0.707031 2.078125 -0.4375 2.078125 -0.125 C 2.085938 0.175781 2.097656 0.488281 2.109375 0.8125 C 2.117188 1.132812 2.132812 1.441406 2.15625 1.734375 C 2.175781 2.023438 2.203125 2.269531 2.234375 2.46875 C 2.242188 2.5625 2.21875 2.632812 2.15625 2.6875 C 2.101562 2.738281 2.035156 2.769531 1.953125 2.78125 C 1.859375 2.789062 1.722656 2.800781 1.546875 2.8125 C 1.367188 2.820312 1.25 2.828125 1.1875 2.828125 Z M 3.765625 -1.359375 C 4.242188 -1.359375 4.632812 -1.53125 4.9375 -1.875 C 5.238281 -2.21875 5.390625 -2.6875 5.390625 -3.28125 C 5.390625 -3.90625 5.234375 -4.390625 4.921875 -4.734375 C 4.617188 -5.078125 4.234375 -5.25 3.765625 -5.25 C 3.316406 -5.25 2.929688 -5.078125 2.609375 -4.734375 C 2.296875 -4.390625 2.140625 -3.90625 2.140625 -3.28125 C 2.140625 -2.6875 2.289062 -2.21875 2.59375 -1.875 C 2.90625 -1.53125 3.296875 -1.359375 3.765625 -1.359375 Z M 3.765625 -1.359375 "/></g></g></g><g fill="#ffffff" fill-opacity="1"><g transform="translate(19.819716, 17.835755)"><g><path d="M 1.1875 2.828125 C 1.132812 2.828125 1.035156 2.820312 0.890625 2.8125 C 0.753906 2.800781 0.644531 2.789062 0.5625 2.78125 C 0.382812 2.757812 0.296875 2.660156 0.296875 2.484375 C 0.296875 1.984375 0.296875 1.378906 0.296875 0.671875 C 0.304688 -0.0234375 0.320312 -0.773438 0.34375 -1.578125 C 0.363281 -2.378906 0.382812 -3.179688 0.40625 -3.984375 C 0.4375 -4.785156 0.476562 -5.539062 0.53125 -6.25 C 0.550781 -6.445312 0.648438 -6.5625 0.828125 -6.59375 C 0.921875 -6.601562 1.035156 -6.613281 1.171875 -6.625 C 1.304688 -6.632812 1.40625 -6.640625 1.46875 -6.640625 C 1.519531 -6.640625 1.625 -6.632812 1.78125 -6.625 C 1.9375 -6.613281 2.0625 -6.601562 2.15625 -6.59375 C 2.238281 -6.582031 2.304688 -6.546875 2.359375 -6.484375 C 2.410156 -6.421875 2.425781 -6.34375 2.40625 -6.25 C 2.394531 -6.164062 2.378906 -6.078125 2.359375 -5.984375 C 2.347656 -5.898438 2.335938 -5.820312 2.328125 -5.75 C 2.316406 -5.625 2.335938 -5.550781 2.390625 -5.53125 C 2.453125 -5.519531 2.507812 -5.566406 2.5625 -5.671875 C 2.78125 -5.972656 3.066406 -6.21875 3.421875 -6.40625 C 3.773438 -6.59375 4.132812 -6.6875 4.5 -6.6875 C 5.007812 -6.6875 5.457031 -6.5625 5.84375 -6.3125 C 6.238281 -6.0625 6.546875 -5.6875 6.765625 -5.1875 C 6.992188 -4.695312 7.109375 -4.082031 7.109375 -3.34375 C 7.109375 -2.625 6.988281 -2.003906 6.75 -1.484375 C 6.507812 -0.972656 6.1875 -0.582031 5.78125 -0.3125 C 5.375 -0.0390625 4.914062 0.09375 4.40625 0.09375 C 3.976562 0.09375 3.578125 -0.00390625 3.203125 -0.203125 C 2.835938 -0.398438 2.550781 -0.671875 2.34375 -1.015625 C 2.289062 -1.117188 2.238281 -1.160156 2.1875 -1.140625 C 2.132812 -1.117188 2.101562 -1.050781 2.09375 -0.9375 C 2.082031 -0.707031 2.078125 -0.4375 2.078125 -0.125 C 2.085938 0.175781 2.097656 0.488281 2.109375 0.8125 C 2.117188 1.132812 2.132812 1.441406 2.15625 1.734375 C 2.175781 2.023438 2.203125 2.269531 2.234375 2.46875 C 2.242188 2.5625 2.21875 2.632812 2.15625 2.6875 C 2.101562 2.738281 2.035156 2.769531 1.953125 2.78125 C 1.859375 2.789062 1.722656 2.800781 1.546875 2.8125 C 1.367188 2.820312 1.25 2.828125 1.1875 2.828125 Z M 3.765625 -1.359375 C 4.242188 -1.359375 4.632812 -1.53125 4.9375 -1.875 C 5.238281 -2.21875 5.390625 -2.6875 5.390625 -3.28125 C 5.390625 -3.90625 5.234375 -4.390625 4.921875 -4.734375 C 4.617188 -5.078125 4.234375 -5.25 3.765625 -5.25 C 3.316406 -5.25 2.929688 -5.078125 2.609375 -4.734375 C 2.296875 -4.390625 2.140625 -3.90625 2.140625 -3.28125 C 2.140625 -2.6875 2.289062 -2.21875 2.59375 -1.875 C 2.90625 -1.53125 3.296875 -1.359375 3.765625 -1.359375 Z M 3.765625 -1.359375 "/></g></g></g><g fill="#ffffff" fill-opacity="1"><g transform="translate(27.141893, 17.835755)"><g><path d="M 1.46875 0.046875 C 1.289062 0.046875 1.117188 0.0390625 0.953125 0.03125 C 0.796875 0.0195312 0.6875 0.0078125 0.625 0 C 0.4375 -0.0390625 0.34375 -0.144531 0.34375 -0.3125 C 0.34375 -0.820312 0.34375 -1.367188 0.34375 -1.953125 C 0.351562 -2.535156 0.363281 -3.128906 0.375 -3.734375 C 0.394531 -4.347656 0.410156 -4.929688 0.421875 -5.484375 C 0.441406 -6.046875 0.460938 -6.554688 0.484375 -7.015625 C 0.515625 -7.484375 0.539062 -7.875 0.5625 -8.1875 C 0.582031 -8.363281 0.675781 -8.457031 0.84375 -8.46875 C 1.0625 -8.488281 1.335938 -8.503906 1.671875 -8.515625 C 2.015625 -8.535156 2.363281 -8.550781 2.71875 -8.5625 C 3.070312 -8.570312 3.382812 -8.578125 3.65625 -8.578125 C 4.863281 -8.578125 5.796875 -8.382812 6.453125 -8 C 7.117188 -7.613281 7.453125 -7.066406 7.453125 -6.359375 C 7.453125 -5.722656 7.242188 -5.164062 6.828125 -4.6875 C 6.421875 -4.21875 5.84375 -3.851562 5.09375 -3.59375 C 4.34375 -3.332031 3.46875 -3.210938 2.46875 -3.234375 C 2.269531 -3.210938 2.171875 -3.054688 2.171875 -2.765625 C 2.171875 -2.441406 2.195312 -2.128906 2.25 -1.828125 C 2.3125 -1.523438 2.375 -1.25 2.4375 -1 C 2.5 -0.75 2.535156 -0.53125 2.546875 -0.34375 C 2.554688 -0.257812 2.53125 -0.179688 2.46875 -0.109375 C 2.40625 -0.046875 2.328125 -0.00390625 2.234375 0.015625 C 2.128906 0.0234375 2.003906 0.03125 1.859375 0.03125 C 1.710938 0.0390625 1.582031 0.046875 1.46875 0.046875 Z M 2.765625 -4.453125 C 3.429688 -4.460938 3.976562 -4.546875 4.40625 -4.703125 C 4.84375 -4.859375 5.164062 -5.066406 5.375 -5.328125 C 5.582031 -5.585938 5.6875 -5.859375 5.6875 -6.140625 C 5.6875 -6.472656 5.53125 -6.726562 5.21875 -6.90625 C 4.90625 -7.082031 4.390625 -7.171875 3.671875 -7.171875 C 3.472656 -7.171875 3.300781 -7.164062 3.15625 -7.15625 C 3.007812 -7.15625 2.859375 -7.144531 2.703125 -7.125 C 2.546875 -7.125 2.429688 -7.082031 2.359375 -7 C 2.296875 -6.914062 2.253906 -6.816406 2.234375 -6.703125 C 2.203125 -6.472656 2.1875 -6.179688 2.1875 -5.828125 C 2.1875 -5.472656 2.203125 -5.144531 2.234375 -4.84375 C 2.265625 -4.570312 2.441406 -4.441406 2.765625 -4.453125 Z M 2.765625 -4.453125 "/></g></g></g><g fill="#ffffff" fill-opacity="1"><g transform="translate(34.81505, 17.835755)"><g><path d="M 2.984375 0.09375 C 2.054688 0.09375 1.378906 -0.191406 0.953125 -0.765625 C 0.523438 -1.347656 0.3125 -2.140625 0.3125 -3.140625 C 0.3125 -3.597656 0.328125 -4.066406 0.359375 -4.546875 C 0.390625 -5.035156 0.429688 -5.601562 0.484375 -6.25 C 0.492188 -6.4375 0.59375 -6.550781 0.78125 -6.59375 C 0.875 -6.613281 0.976562 -6.625 1.09375 -6.625 C 1.21875 -6.632812 1.3125 -6.640625 1.375 -6.640625 C 1.445312 -6.640625 1.5625 -6.632812 1.71875 -6.625 C 1.882812 -6.625 2.019531 -6.613281 2.125 -6.59375 C 2.207031 -6.582031 2.273438 -6.546875 2.328125 -6.484375 C 2.390625 -6.429688 2.410156 -6.359375 2.390625 -6.265625 C 2.359375 -5.984375 2.316406 -5.671875 2.265625 -5.328125 C 2.222656 -4.992188 2.1875 -4.664062 2.15625 -4.34375 C 2.132812 -4.019531 2.125 -3.742188 2.125 -3.515625 C 2.125 -2.867188 2.25 -2.359375 2.5 -1.984375 C 2.75 -1.617188 3.148438 -1.4375 3.703125 -1.4375 C 4.140625 -1.4375 4.488281 -1.628906 4.75 -2.015625 C 5.019531 -2.410156 5.15625 -2.9375 5.15625 -3.59375 C 5.15625 -3.945312 5.132812 -4.363281 5.09375 -4.84375 C 5.0625 -5.332031 5.003906 -5.800781 4.921875 -6.25 C 4.910156 -6.34375 4.929688 -6.421875 4.984375 -6.484375 C 5.046875 -6.546875 5.113281 -6.582031 5.1875 -6.59375 C 5.269531 -6.613281 5.382812 -6.625 5.53125 -6.625 C 5.675781 -6.632812 5.796875 -6.640625 5.890625 -6.640625 C 6.003906 -6.640625 6.125 -6.632812 6.25 -6.625 C 6.375 -6.625 6.488281 -6.613281 6.59375 -6.59375 C 6.757812 -6.570312 6.851562 -6.457031 6.875 -6.25 C 6.925781 -5.539062 6.960938 -4.921875 6.984375 -4.390625 C 7.003906 -3.867188 7.019531 -3.382812 7.03125 -2.9375 C 7.050781 -2.5 7.054688 -2.070312 7.046875 -1.65625 C 7.046875 -1.25 7.046875 -0.800781 7.046875 -0.3125 C 7.046875 -0.132812 6.96875 -0.0234375 6.8125 0.015625 C 6.726562 0.0234375 6.628906 0.0351562 6.515625 0.046875 C 6.410156 0.0546875 6.304688 0.0625 6.203125 0.0625 C 6.097656 0.0625 5.984375 0.0546875 5.859375 0.046875 C 5.734375 0.0351562 5.617188 0.0234375 5.515625 0.015625 C 5.429688 -0.00390625 5.363281 -0.0390625 5.3125 -0.09375 C 5.257812 -0.15625 5.238281 -0.234375 5.25 -0.328125 C 5.269531 -0.441406 5.28125 -0.550781 5.28125 -0.65625 C 5.289062 -0.757812 5.296875 -0.851562 5.296875 -0.9375 C 5.296875 -1.070312 5.269531 -1.140625 5.21875 -1.140625 C 5.164062 -1.148438 5.101562 -1.101562 5.03125 -1 C 4.78125 -0.613281 4.484375 -0.332031 4.140625 -0.15625 C 3.804688 0.0078125 3.421875 0.09375 2.984375 0.09375 Z M 2.984375 0.09375 "/></g></g></g><g fill="#ffffff" fill-opacity="1"><g transform="translate(42.16143, 17.835755)"><g><path d="M 1.265625 0.046875 C 1.160156 0.046875 1.039062 0.0390625 0.90625 0.03125 C 0.78125 0.03125 0.671875 0.0195312 0.578125 0 C 0.503906 -0.0195312 0.4375 -0.0546875 0.375 -0.109375 C 0.320312 -0.160156 0.300781 -0.238281 0.3125 -0.34375 C 0.3125 -1.082031 0.3125 -1.722656 0.3125 -2.265625 C 0.320312 -2.804688 0.332031 -3.296875 0.34375 -3.734375 C 0.363281 -4.171875 0.382812 -4.585938 0.40625 -4.984375 C 0.4375 -5.390625 0.472656 -5.816406 0.515625 -6.265625 C 0.546875 -6.453125 0.632812 -6.5625 0.78125 -6.59375 C 0.875 -6.601562 0.972656 -6.613281 1.078125 -6.625 C 1.179688 -6.632812 1.285156 -6.640625 1.390625 -6.640625 C 1.503906 -6.640625 1.617188 -6.632812 1.734375 -6.625 C 1.847656 -6.613281 1.960938 -6.601562 2.078125 -6.59375 C 2.148438 -6.582031 2.210938 -6.546875 2.265625 -6.484375 C 2.316406 -6.421875 2.332031 -6.347656 2.3125 -6.265625 C 2.28125 -6.160156 2.253906 -6.050781 2.234375 -5.9375 C 2.210938 -5.832031 2.195312 -5.742188 2.1875 -5.671875 C 2.175781 -5.535156 2.195312 -5.457031 2.25 -5.4375 C 2.3125 -5.425781 2.378906 -5.476562 2.453125 -5.59375 C 2.734375 -5.976562 3.035156 -6.253906 3.359375 -6.421875 C 3.679688 -6.597656 4.054688 -6.6875 4.484375 -6.6875 C 4.972656 -6.6875 5.410156 -6.554688 5.796875 -6.296875 C 6.179688 -6.035156 6.488281 -5.664062 6.71875 -5.1875 C 6.945312 -4.707031 7.070312 -4.132812 7.09375 -3.46875 C 7.113281 -3.15625 7.128906 -2.851562 7.140625 -2.5625 C 7.148438 -2.269531 7.160156 -1.945312 7.171875 -1.59375 C 7.179688 -1.238281 7.1875 -0.820312 7.1875 -0.34375 C 7.1875 -0.238281 7.15625 -0.160156 7.09375 -0.109375 C 7.039062 -0.0546875 6.972656 -0.0195312 6.890625 0 C 6.796875 0.0195312 6.679688 0.03125 6.546875 0.03125 C 6.421875 0.0390625 6.328125 0.046875 6.265625 0.046875 C 6.191406 0.046875 6.078125 0.0390625 5.921875 0.03125 C 5.773438 0.03125 5.644531 0.0195312 5.53125 0 C 5.445312 -0.0195312 5.375 -0.0546875 5.3125 -0.109375 C 5.257812 -0.160156 5.238281 -0.238281 5.25 -0.34375 C 5.28125 -0.625 5.300781 -0.929688 5.3125 -1.265625 C 5.332031 -1.597656 5.34375 -1.921875 5.34375 -2.234375 C 5.351562 -2.554688 5.359375 -2.820312 5.359375 -3.03125 C 5.347656 -3.675781 5.195312 -4.1875 4.90625 -4.5625 C 4.613281 -4.945312 4.222656 -5.140625 3.734375 -5.140625 C 3.265625 -5.140625 2.878906 -4.945312 2.578125 -4.5625 C 2.273438 -4.175781 2.125 -3.65625 2.125 -3 C 2.125 -2.65625 2.128906 -2.238281 2.140625 -1.75 C 2.160156 -1.257812 2.203125 -0.789062 2.265625 -0.34375 C 2.273438 -0.238281 2.25 -0.160156 2.1875 -0.109375 C 2.132812 -0.0546875 2.066406 -0.0195312 1.984375 0 C 1.898438 0.0195312 1.785156 0.03125 1.640625 0.03125 C 1.492188 0.0390625 1.367188 0.046875 1.265625 0.046875 Z M 1.265625 0.046875 "/></g></g></g><g fill="#ffffff" fill-opacity="1"><g transform="translate(49.616736, 17.835755)"><g><path d="M 1.34375 0.046875 C 1.25 0.046875 1.128906 0.0390625 0.984375 0.03125 C 0.835938 0.03125 0.71875 0.0195312 0.625 0 C 0.4375 -0.0390625 0.34375 -0.15625 0.34375 -0.34375 C 0.34375 -1.039062 0.34375 -1.765625 0.34375 -2.515625 C 0.351562 -3.273438 0.363281 -4.019531 0.375 -4.75 C 0.394531 -5.476562 0.414062 -6.15625 0.4375 -6.78125 C 0.46875 -7.414062 0.5 -7.960938 0.53125 -8.421875 C 0.550781 -8.597656 0.648438 -8.695312 0.828125 -8.71875 C 0.921875 -8.738281 1.023438 -8.75 1.140625 -8.75 C 1.253906 -8.757812 1.359375 -8.765625 1.453125 -8.765625 C 1.566406 -8.765625 1.695312 -8.757812 1.84375 -8.75 C 2 -8.75 2.117188 -8.738281 2.203125 -8.71875 C 2.296875 -8.707031 2.367188 -8.664062 2.421875 -8.59375 C 2.472656 -8.53125 2.488281 -8.457031 2.46875 -8.375 C 2.4375 -8.101562 2.394531 -7.753906 2.34375 -7.328125 C 2.289062 -6.910156 2.242188 -6.476562 2.203125 -6.03125 C 2.160156 -5.582031 2.140625 -5.179688 2.140625 -4.828125 C 2.140625 -4.628906 2.191406 -4.460938 2.296875 -4.328125 C 2.398438 -4.203125 2.523438 -4.140625 2.671875 -4.140625 C 3.046875 -4.140625 3.390625 -4.242188 3.703125 -4.453125 C 4.023438 -4.660156 4.289062 -4.925781 4.5 -5.25 C 4.707031 -5.570312 4.828125 -5.914062 4.859375 -6.28125 C 4.859375 -6.445312 4.953125 -6.550781 5.140625 -6.59375 C 5.242188 -6.601562 5.363281 -6.613281 5.5 -6.625 C 5.632812 -6.632812 5.75 -6.640625 5.84375 -6.640625 C 5.9375 -6.640625 6.03125 -6.632812 6.125 -6.625 C 6.226562 -6.625 6.335938 -6.613281 6.453125 -6.59375 C 6.648438 -6.550781 6.75 -6.445312 6.75 -6.28125 C 6.738281 -5.800781 6.660156 -5.378906 6.515625 -5.015625 C 6.367188 -4.660156 6.113281 -4.363281 5.75 -4.125 C 5.382812 -3.894531 4.875 -3.726562 4.21875 -3.625 C 4.113281 -3.601562 4.0625 -3.5625 4.0625 -3.5 C 4.0625 -3.445312 4.113281 -3.414062 4.21875 -3.40625 C 4.9375 -3.3125 5.5 -3.132812 5.90625 -2.875 C 6.3125 -2.625 6.601562 -2.285156 6.78125 -1.859375 C 6.96875 -1.429688 7.082031 -0.910156 7.125 -0.296875 C 7.132812 -0.128906 7.035156 -0.0234375 6.828125 0.015625 C 6.703125 0.0234375 6.585938 0.03125 6.484375 0.03125 C 6.378906 0.0390625 6.289062 0.046875 6.21875 0.046875 C 6.125 0.046875 5.992188 0.0390625 5.828125 0.03125 C 5.660156 0.03125 5.507812 0.0234375 5.375 0.015625 C 5.1875 -0.0234375 5.085938 -0.125 5.078125 -0.28125 C 5.054688 -0.664062 4.96875 -1.015625 4.8125 -1.328125 C 4.65625 -1.640625 4.457031 -1.90625 4.21875 -2.125 C 3.976562 -2.34375 3.71875 -2.515625 3.4375 -2.640625 C 3.164062 -2.765625 2.894531 -2.828125 2.625 -2.828125 C 2.5 -2.828125 2.390625 -2.769531 2.296875 -2.65625 C 2.203125 -2.550781 2.148438 -2.421875 2.140625 -2.265625 C 2.128906 -1.941406 2.132812 -1.625 2.15625 -1.3125 C 2.175781 -1.007812 2.210938 -0.6875 2.265625 -0.34375 C 2.273438 -0.238281 2.253906 -0.15625 2.203125 -0.09375 C 2.148438 -0.0390625 2.078125 -0.00390625 1.984375 0.015625 C 1.898438 0.0234375 1.796875 0.03125 1.671875 0.03125 C 1.546875 0.0390625 1.4375 0.046875 1.34375 0.046875 Z M 1.34375 0.046875 "/></g></g></g></svg>